<?xml version="1.0" standalone="no"?>
<!DOCTYPE svg PUBLIC "-//W3C//DTD SVG 20010904//EN"
 "http://www.w3.org/TR/2001/REC-SVG-20010904/DTD/svg10.dtd">
<svg version="1.0" xmlns="http://www.w3.org/2000/svg"
 width="192.000000pt" height="192.000000pt" viewBox="0 0 192.000000 192.000000"
 preserveAspectRatio="xMidYMid meet">
<metadata>
Created by potrace 1.11, written by Peter Selinger 2001-2013
</metadata>
<g transform="translate(0.000000,192.000000) scale(0.100000,-0.100000)"
fill="#000000" stroke="none">
<path d="M255 1751 c-30 -9 -86 -41 -106 -60 -9 -9 -28 -36 -40 -61 l-24 -45
-3 -605 c-3 -683 -3 -677 69 -748 76 -73 54 -71 802 -72 482 0 681 3 715 12
63 16 143 94 161 158 9 34 11 166 9 530 -3 542 -1 521 -77 595 -62 61 -91 65
-486 65 l-351 0 -77 114 c-49 72 -85 116 -99 120 -31 8 -468 6 -493 -3z m495
-261 c40 -61 78 -114 84 -118 6 -4 190 -9 408 -12 364 -5 399 -6 415 -23 17
-16 18 -52 21 -482 3 -503 1 -517 -51 -530 -12 -3 -321 -4 -685 -3 l-664 3
-19 24 c-18 22 -19 47 -19 610 0 540 2 588 18 607 9 12 24 24 32 27 8 3 99 6
201 6 l186 1 73 -110z"/>
</g>
</svg>
